<svg width="56" height="56" viewBox="0 0 56 56" fill="none" xmlns="http://www.w3.org/2000/svg">
<circle cx="28" cy="28" r="28" fill="#27BDBE"/>
<g clip-path="url(#clip0_109_78)">
<path d="M45.3499 15.948V21.3716C45.3499 26.6942 43.8875 31.9102 41.1195 36.4567C38.3525 41.0032 34.3904 44.698 29.6626 47.1422L28.0031 48L26.3435 47.1422C21.6157 44.698 17.6539 41.0032 14.8866 36.4567C12.1187 31.9102 10.6562 26.6942 10.6562 21.3716V15.948L11.4393 15.6749C14.7264 14.5289 17.3237 12.0054 18.5661 8.75104L18.8533 8H37.1528L37.44 8.75104C38.6824 12.0054 41.2797 14.5289 44.5668 15.6749L45.3499 15.948Z" fill="white" fill-opacity="0.59"/>
<path d="M45.3497 15.948V21.3716C45.3497 26.6942 43.8873 31.9102 41.1194 36.4567C38.3524 41.0032 34.3903 44.698 29.6625 47.1422L28.0029 48V8H37.1527L37.4402 8.75104C38.6823 12.0054 41.2799 14.5289 44.567 15.6749L45.3497 15.948Z" fill="#4FCDCE"/>
<path d="M40.897 18.7283L40.8955 22.8527C40.6752 26.7251 39.5558 30.4693 37.6582 33.6791C35.6669 37.0464 32.8056 39.8315 29.384 41.7324L29.3528 41.7495L28.0031 42.4468L26.6221 41.7324C23.2005 39.8315 20.3392 37.0464 18.3482 33.6791C16.4503 30.4693 15.3312 26.7251 15.1109 22.8527L15.1094 22.7865V18.7283L15.764 18.4081C18.8502 16.899 20.0505 15.5056 21.5745 12.9534L21.9145 12.3843H34.0916L34.4316 12.9534C35.9559 15.5056 37.1559 16.899 40.2421 18.4081L40.897 18.7283Z" fill="white"/>
<path d="M40.8969 18.7283L40.8954 22.8527C40.675 26.7251 39.5557 30.4693 37.6581 33.6791C35.6668 37.0464 32.8055 39.8315 29.3839 41.7324L29.3527 41.7495L28.0029 42.4468V12.3843H34.0915L34.4315 12.9534C35.9558 15.5056 37.1558 16.899 40.242 18.4081L40.8969 18.7283Z" fill="#B5EBEA"/>
<path d="M35.5269 22.355L28.0031 29.6273L26.4299 31.1474L20.4792 25.5276L22.0829 23.8299L26.4113 27.918L28.0031 26.3793L33.9039 20.6753L35.5269 22.355Z" fill="#2DDBDC"/>
<path d="M35.5267 22.355L28.0029 29.6273V26.3793L33.9038 20.6753L35.5267 22.355Z" fill="#27BDBE"/>
</g>
<defs>
<clipPath id="clip0_109_78">
<rect width="40" height="40" fill="white" transform="translate(8 8)"/>
</clipPath>
</defs>
</svg>
