<svg width="56" height="56" viewBox="0 0 56 56" fill="none" xmlns="http://www.w3.org/2000/svg">
<circle cx="28" cy="28" r="28" fill="#27BDBE"/>
<g clip-path="url(#clip0_109_2)">
<path d="M30.5562 9.48438V15.4194H28.2124V11.8281H20.9468V15.4194H18.603V9.48438H30.5562Z" fill="white"/>
<path d="M28.2124 11.8281H24.5796V9.48438H30.5562V15.4194H28.2124V11.8281Z" fill="#B5EBEA"/>
<path d="M8 14.2212H41.1595V38.7573H8V14.2212Z" fill="white"/>
<path d="M24.5796 14.2212H41.1595V38.7573H24.5796V14.2212Z" fill="#B5EBEA"/>
<path d="M31.7408 23.0532V29.9252H27.9908V33.6752H21.1191V29.9252H17.3691V23.0532H21.1191V19.3032H27.9908V23.0532H31.7408Z" fill="#A6E4E4"/>
<path d="M31.7405 23.0532V29.9252H27.9905V33.6752H24.5796V19.3032H27.9905V23.0532H31.7405Z" fill="#4FCDCE"/>
<path d="M48.0002 32.3151V34.9445C48.0002 37.2339 47.3712 39.4776 46.1801 41.4329C44.9899 43.3881 43.2858 44.9781 41.2524 46.0288L40.311 46.5156L39.3698 46.0288C37.3355 44.9781 35.6314 43.3881 34.4412 41.4329C33.251 39.4776 32.6221 37.2339 32.6221 34.9445V32.3151L33.3234 32.0704C34.5151 31.6553 35.4565 30.7404 35.907 29.5606L36.1636 28.8877H44.458L44.7153 29.5606C45.1657 30.7404 46.1069 31.6553 47.2986 32.0704L48.0002 32.3151Z" fill="white"/>
<path d="M47.9998 32.3151V34.9445C47.9998 37.2339 47.3708 39.4776 46.1797 41.4329C44.9895 43.3881 43.2854 44.9781 41.252 46.0288L40.3105 46.5156V28.8877H44.4576L44.7148 29.5606C45.1653 30.7404 46.1064 31.6553 47.2982 32.0704L47.9998 32.3151Z" fill="#B5EBEA"/>
<path d="M45.0475 35.0133L40.3106 39.5912L39.8077 40.0774L36.2466 36.7141L37.8561 35.0093L39.7888 36.8358L40.3106 36.3314L43.4185 33.3281L45.0475 35.0133Z" fill="#2DDBDC"/>
<path d="M45.0475 35.0133L40.3105 39.5912V36.3314L43.4185 33.3281L45.0475 35.0133Z" fill="#27BDBE"/>
</g>
<defs>
<clipPath id="clip0_109_2">
<rect width="40" height="40" fill="white" transform="translate(8 8)"/>
</clipPath>
</defs>
</svg>
