<svg width="56" height="56" viewBox="0 0 56 56" fill="none" xmlns="http://www.w3.org/2000/svg">
<circle cx="28" cy="28" r="28" fill="#27BDBE"/>
<g clip-path="url(#clip0_109_41)">
<path d="M36.3316 32.241V39.571H12.2188V32.241C12.2188 27.7662 14.6693 23.8527 18.2988 21.7729C20.0612 20.7628 22.1016 20.1851 24.2747 20.1851C26.2983 20.1851 28.2069 20.6859 29.8832 21.5709C33.715 23.5917 36.3316 27.6164 36.3316 32.241Z" fill="#A6E4E4"/>
<path d="M36.3317 32.2413V39.5707H24.2751V20.1851C30.9237 20.1851 36.3317 25.5931 36.3317 32.2413Z" fill="#4FCDCE"/>
<path d="M31.6741 15.3209C31.6741 19.4005 28.355 22.7198 24.2751 22.7198C20.1956 22.7198 16.8765 19.4005 16.8765 15.3209C16.8765 11.241 20.1956 7.92188 24.2751 7.92188C28.355 7.92188 31.6741 11.2413 31.6741 15.3209Z" fill="white"/>
<path d="M31.6741 15.3209C31.6741 19.4005 28.355 22.7198 24.2751 22.7198V7.92188C28.355 7.92188 31.6741 11.2413 31.6741 15.3209Z" fill="#8EDBDA"/>
<path d="M43.8799 31.9795V34.9315C43.8799 37.5016 43.1737 40.0209 41.8367 42.2157C40.5004 44.4108 38.5872 46.1958 36.3045 47.3756L35.2477 47.9219L34.1909 47.3756C31.9072 46.1958 29.9941 44.4108 28.6577 42.2157C27.3214 40.0209 26.6155 37.5016 26.6155 34.9315V31.9795L27.4028 31.7048C28.7407 31.2388 29.7975 30.2119 30.3032 28.8875L30.5913 28.1318H39.9031L40.1921 28.8875C40.6978 30.2119 41.7546 31.2388 43.0925 31.7048L43.8799 31.9795Z" fill="white"/>
<path d="M43.8798 31.9795V34.9315C43.8798 37.5016 43.1736 40.0209 41.8366 42.2157C40.5002 44.4108 38.5871 46.1958 36.3044 47.3756L35.2476 47.9219V28.1318H39.903L40.192 28.8875C40.6977 30.2119 41.7545 31.2388 43.0924 31.7048L43.8798 31.9795Z" fill="#B5EBEA"/>
<path d="M39.994 35.3331L35.2476 39.9205L34.7434 40.4075L31.1753 37.0375L32.7878 35.3294L34.7245 37.1595L35.2476 36.6539L38.3616 33.6445L39.994 35.3331Z" fill="#2DDBDC"/>
<path d="M39.994 35.3331L35.2476 39.9205V36.6539L38.3616 33.6445L39.994 35.3331Z" fill="#27BDBE"/>
</g>
<defs>
<clipPath id="clip0_109_41">
<rect width="40" height="40" fill="white" transform="translate(8 8)"/>
</clipPath>
</defs>
</svg>
