<svg width="56" height="56" viewBox="0 0 56 56" fill="none" xmlns="http://www.w3.org/2000/svg">
<circle cx="28" cy="28" r="27.25" stroke="#27C1C2" stroke-width="1.5"/>
<g clip-path="url(#clip0_1_1357)">
<path d="M46.7503 24.7247C46.4037 24.1708 46.0763 23.6475 45.9538 23.1894C45.8219 22.6957 45.8426 22.0573 45.8646 21.3814C45.8998 20.2954 45.9398 19.0643 45.3224 17.9972C44.6965 16.9153 43.6017 16.3331 42.636 15.8194C42.0465 15.506 41.4898 15.2099 41.1399 14.86C40.7901 14.5102 40.494 13.9534 40.1805 13.364C39.6668 12.3981 39.0846 11.3035 38.0026 10.6775C36.9355 10.0601 35.7046 10.0998 34.6184 10.1354C33.9424 10.1572 33.3041 10.178 32.8105 10.0461C32.3523 9.92354 31.8291 9.59614 31.275 9.24953C30.3391 8.66394 29.278 8 28 8C26.722 8 25.6609 8.66394 24.7248 9.24961C24.1709 9.59622 23.6476 9.9237 23.1894 10.0461C22.6957 10.178 22.0574 10.1572 21.3814 10.1354C20.2954 10.1 19.0644 10.0602 17.9973 10.6776C16.9153 11.3035 16.3331 12.3983 15.8194 13.3641C15.506 13.9535 15.2098 14.5102 14.86 14.8601C14.5102 15.2098 13.9535 15.506 13.364 15.8194C12.3982 16.3331 11.3035 16.9153 10.6775 17.9973C10.0601 19.0644 10.1001 20.2954 10.1353 21.3815C10.1572 22.0574 10.178 22.6958 10.046 23.1895C9.92346 23.6477 9.59614 24.1709 9.24945 24.7249C8.66394 25.6609 8 26.722 8 28C8 29.278 8.66394 30.3391 9.24969 31.2753C9.5963 31.8292 9.9237 32.3525 10.0462 32.8106C10.1781 33.3043 10.1574 33.9427 10.1354 34.6186C10.1002 35.7046 10.0602 36.9357 10.6776 38.0028C11.3035 39.0847 12.3983 39.6669 13.364 40.1805C13.9535 40.494 14.5102 40.7901 14.8601 41.14C15.2099 41.4898 15.506 42.0466 15.8195 42.636C16.3331 43.6019 16.9154 44.6965 17.9974 45.3225C19.0645 45.9399 20.2953 45.9002 21.3816 45.8646C22.0575 45.8428 22.6959 45.822 23.1895 45.9539C23.6477 46.0765 24.1709 46.4039 24.725 46.7505C25.6609 47.3361 26.722 48 28 48C29.278 48 30.3391 47.3361 31.2752 46.7504C31.8291 46.4038 32.3524 46.0763 32.8106 45.9539C33.3043 45.8219 33.9426 45.8427 34.6186 45.8646C35.7046 45.9002 36.9357 45.9399 38.0027 45.3224C39.0847 44.6965 39.6668 43.6017 40.1805 42.6359C40.494 42.0465 40.7902 41.4898 41.14 41.1399C41.4898 40.7902 42.0465 40.494 42.636 40.1805C43.6018 39.6669 44.6965 39.0847 45.3225 38.0027C45.9399 36.9356 45.8999 35.7046 45.8647 34.6185C45.8428 33.9426 45.822 33.3042 45.954 32.8105C46.0765 32.3523 46.4039 31.8291 46.7505 31.2751C47.3361 30.3391 48 29.278 48 28C48 26.722 47.3361 25.6609 46.7503 24.7247ZM44.7479 30.0222C44.324 30.6995 43.8857 31.3999 43.6717 32.2006C43.4496 33.0318 43.477 33.8774 43.5035 34.6953C43.5309 35.5398 43.5569 36.3373 43.2777 36.8198C42.9902 37.3166 42.2793 37.6946 41.5266 38.095C40.8099 38.4761 40.0689 38.8702 39.4695 39.4696C38.8702 40.069 38.476 40.81 38.0949 41.5267C37.6946 42.2794 37.3165 42.9904 36.8197 43.2778C36.3372 43.5569 35.5396 43.5311 34.6952 43.5036C33.8774 43.4771 33.0318 43.4495 32.2006 43.6717C31.3999 43.8857 30.6995 44.324 30.0221 44.7479C29.2908 45.2055 28.5999 45.6378 28 45.6378C27.4001 45.6378 26.7093 45.2055 25.9779 44.7479C25.3005 44.324 24.6001 43.8857 23.7994 43.6717C23.2419 43.5227 22.6779 43.4861 22.1201 43.4861C21.8463 43.4861 21.574 43.4949 21.3048 43.5037C20.4603 43.531 19.6628 43.5571 19.1803 43.2779C18.6835 42.9905 18.3054 42.2794 17.9051 41.5268C17.5239 40.8101 17.1298 40.0691 16.5305 39.4697C15.9311 38.8703 15.19 38.4761 14.4733 38.095C13.7206 37.6946 13.0097 37.3165 12.7223 36.8198C12.4431 36.3373 12.4691 35.5398 12.4965 34.6954C12.523 33.8776 12.5505 33.0319 12.3283 32.2007C12.1143 31.4001 11.6761 30.6997 11.2523 30.0224C10.7945 29.2909 10.3622 28.5999 10.3622 28C10.3622 27.4001 10.7945 26.7092 11.2521 25.9778C11.676 25.3005 12.1143 24.6001 12.3283 23.7994C12.5504 22.9682 12.523 22.1226 12.4965 21.3047C12.4691 20.4602 12.4431 19.6627 12.7223 19.1802C13.0098 18.6834 13.7207 18.3054 14.4734 17.905C15.1901 17.5239 15.9311 17.1298 16.5305 16.5304C17.1298 15.931 17.524 15.19 17.9051 14.4733C18.3054 13.7206 18.6835 13.0096 19.1803 12.7222C19.6628 12.4431 20.4605 12.4691 21.3048 12.4964C22.1226 12.5231 22.9683 12.5506 23.7994 12.3283C24.6001 12.1143 25.3005 11.676 25.9779 11.2521C26.7092 10.7945 27.4001 10.3622 28 10.3622C28.5999 10.3622 29.2907 10.7945 30.0221 11.2521C30.6995 11.676 31.3999 12.1143 32.2006 12.3283C33.0317 12.5504 33.8775 12.523 34.6952 12.4964C35.5398 12.4691 36.3372 12.4431 36.8197 12.7222C37.3165 13.0096 37.6946 13.7206 38.0949 14.4733C38.4761 15.19 38.8702 15.931 39.4695 16.5304C40.0689 17.1298 40.81 17.5239 41.5267 17.9051C42.2794 18.3054 42.9903 18.6835 43.2777 19.1802C43.5569 19.6628 43.5309 20.4603 43.5035 21.3047C43.477 22.1225 43.4495 22.9682 43.6717 23.7994C43.8857 24.6 44.3239 25.3004 44.7477 25.9777C45.2055 26.7091 45.6378 27.4001 45.6378 28C45.6378 28.5999 45.2055 29.2908 44.7479 30.0222Z" fill="#27C1C2"/>
<path d="M25.8037 30.4326L22.536 27.1649L20.8657 28.8352L25.77 33.7395L35.1172 24.7662L33.4813 23.062L25.8037 30.4326Z" fill="#27C1C2"/>
<path d="M28.0002 14.2207C20.4022 14.2207 14.2207 20.4022 14.2207 28.0002C14.2207 35.5983 20.4022 41.7798 28.0002 41.7798C35.5983 41.7798 41.7798 35.5983 41.7798 28.0002C41.7798 20.4022 35.5983 14.2207 28.0002 14.2207ZM28.0002 39.4176C21.7047 39.4176 16.5829 34.2957 16.5829 28.0002C16.5829 21.7047 21.7047 16.5829 28.0002 16.5829C34.2957 16.5829 39.4176 21.7047 39.4176 28.0002C39.4176 34.2957 34.2957 39.4176 28.0002 39.4176Z" fill="#27C1C2"/>
</g>
<defs>
<clipPath id="clip0_1_1357">
<rect width="40" height="40" fill="white" transform="translate(8 8)"/>
</clipPath>
</defs>
</svg>
