<svg width="56" height="56" viewBox="0 0 56 56" fill="none" xmlns="http://www.w3.org/2000/svg">
<circle cx="28" cy="28" r="28" fill="#27BDBE"/>
<path d="M36.2364 16.4218C35.4823 17.8009 34.3025 18.9111 33.2619 19.8901C33.0831 20.0589 32.9058 20.2261 32.7324 20.3925C32.0729 21.0254 31.4089 21.6324 30.7665 22.2199C30.1345 22.7972 29.4814 23.3951 28.8429 24.0076L28.0382 24.7803L28.0312 24.7873L27.2194 24.0076C26.581 23.3951 25.9279 22.7972 25.2959 22.2199C24.6535 21.6324 23.9894 21.0254 23.33 20.3925C23.1566 20.2261 22.9793 20.0589 22.8002 19.8901C22.2798 19.4009 21.7244 18.8782 21.2056 18.3057C20.6859 17.7338 20.2025 17.1118 19.8259 16.4218C18.7969 14.5413 18.828 12.4481 19.9117 10.6784C21.2557 8.48299 23.1417 8.01027 24.4878 8.0002H24.5308C25.6475 8.0002 26.7491 8.32277 27.7202 8.93526L28.0312 9.12996L28.0382 9.12538L28.3452 8.93373C29.3251 8.31514 30.4445 7.99074 31.5743 8.0002C32.9207 8.01027 34.8067 8.48299 36.1504 10.6784C37.2341 12.4481 37.2655 14.5413 36.2364 16.4218Z" fill="#A6E4E4"/>
<path d="M46.5128 18.4845V31.6269L39.7773 42.926V47.9998H16.2989V42.926L9.5625 31.6269V18.4845C9.5625 16.561 11.1284 14.9951 13.0525 14.9951C14.9769 14.9951 16.5419 16.561 16.5419 18.4845V27.9336L17.0771 28.486C17.2554 28.1171 17.4952 27.778 17.7882 27.4914C19.189 26.1133 21.4555 26.1255 22.8407 27.5195L28.0381 32.7496L33.2353 27.5195C34.6205 26.1255 36.8873 26.1133 38.2881 27.4914C38.5444 27.7429 38.7638 28.0334 38.9311 28.3514C38.9546 28.396 38.9771 28.4405 38.9991 28.486L39.5344 27.9336V18.4845C39.5344 16.561 41.0993 14.9951 43.0235 14.9951C44.9479 14.9951 46.5128 16.561 46.5128 18.4845Z" fill="white"/>
<path d="M28.8428 24.0076L28.0381 24.7803V9.12508L28.3451 8.93373C29.325 8.31484 30.4444 7.99074 31.5742 8.0002C32.9206 8.01027 34.8066 8.48299 36.1503 10.6784C37.2339 12.4481 37.2654 14.5413 36.2363 16.4218C35.4822 17.8009 34.3024 18.9111 33.2618 19.8901C33.0829 20.0589 32.9056 20.2261 32.7323 20.3925C32.0728 21.0254 31.4087 21.6324 30.7664 22.2199C30.1343 22.7972 29.4813 23.3951 28.8428 24.0076Z" fill="#4FCDCE"/>
<path d="M46.5128 18.4845V31.6269L39.7773 42.926V47.9998H28.0381V32.7496L33.2352 27.5195C34.6204 26.1255 36.8873 26.1133 38.288 27.4914C38.5444 27.7429 38.7638 28.0334 38.931 28.3514C38.9545 28.396 38.9771 28.4405 38.9991 28.486L39.5344 27.9336V18.4845C39.5344 16.561 41.0993 14.9951 43.0234 14.9951C44.9479 14.9951 46.5128 16.561 46.5128 18.4845Z" fill="#B5EBEA"/>
</svg>
