<svg width="30" height="33" viewBox="0 0 30 33" fill="none" xmlns="http://www.w3.org/2000/svg">
<path d="M2.96234 6.12943L3.88208 4.94449C3.42972 4.59337 2.81692 4.53044 2.30264 4.78228C1.78837 5.03413 1.46234 5.5568 1.46234 6.12943H2.96234ZM2.96234 27.2589H1.46234C1.46234 27.8316 1.78837 28.3543 2.30264 28.6061C2.81692 28.8579 3.42972 28.795 3.88208 28.4439L2.96234 27.2589ZM16.5735 16.6942L17.4932 17.8791C17.8593 17.595 18.0735 17.1576 18.0735 16.6942C18.0735 16.2308 17.8593 15.7934 17.4932 15.5092L16.5735 16.6942ZM1.46234 6.12943V27.2589H4.46234V6.12943H1.46234ZM3.88208 28.4439L17.4932 17.8791L15.6538 15.5092L2.04261 26.074L3.88208 28.4439ZM17.4932 15.5092L3.88208 4.94449L2.04261 7.31437L15.6538 17.8791L17.4932 15.5092ZM24.7957 5.07295V28.3154H27.7957V5.07295H24.7957Z" fill="#EAF0FF"/>
</svg>
