<svg width="28" height="27" viewBox="0 0 28 27" fill="none" xmlns="http://www.w3.org/2000/svg">
<path d="M2 2L2.64818 0.647276C2.1834 0.424568 1.63683 0.456068 1.20071 0.730695C0.76459 1.00532 0.5 1.48462 0.5 2L2 2ZM2 25H0.5C0.5 25.5154 0.76459 25.9947 1.20071 26.2693C1.63683 26.5439 2.1834 26.5754 2.64818 26.3527L2 25ZM26 13.5L26.6482 14.8527C27.1688 14.6033 27.5 14.0772 27.5 13.5C27.5 12.9227 27.1688 12.3967 26.6482 12.1473L26 13.5ZM0.5 2V25H3.5V2H0.5ZM2.64818 26.3527L26.6482 14.8527L25.3518 12.1473L1.35182 23.6473L2.64818 26.3527ZM26.6482 12.1473L2.64818 0.647276L1.35182 3.35272L25.3518 14.8527L26.6482 12.1473Z" fill="#EAF0FF"/>
</svg>
