<svg width="30" height="33" viewBox="0 0 30 33" fill="none" xmlns="http://www.w3.org/2000/svg">
<path d="M26.426 27.2589L25.5062 28.4439C25.9586 28.795 26.5714 28.8579 27.0857 28.6061C27.5999 28.3542 27.926 27.8316 27.926 27.2589H26.426ZM26.426 6.12942H27.926C27.926 5.55679 27.5999 5.03411 27.0857 4.78227C26.5714 4.53043 25.9586 4.59336 25.5062 4.94448L26.426 6.12942ZM12.8149 16.6942L11.8951 15.5092C11.5291 15.7934 11.3149 16.2308 11.3149 16.6942C11.3149 17.1576 11.5291 17.595 11.8951 17.8791L12.8149 16.6942ZM27.926 27.2589V6.12942H24.926V27.2589H27.926ZM25.5062 4.94448L11.8951 15.5092L13.7346 17.8791L27.3457 7.31436L25.5062 4.94448ZM11.8951 17.8791L25.5062 28.4439L27.3457 26.074L13.7346 15.5092L11.8951 17.8791ZM4.59267 28.3154V5.07294H1.59267V28.3154H4.59267Z" fill="#EAF0FF"/>
</svg>
